<?xml version="1.0" encoding="UTF-8" standalone="no"?>
<svg width="127px" height="66px" viewBox="0 0 127 66" version="1.1" xmlns="http://www.w3.org/2000/svg" xmlns:xlink="http://www.w3.org/1999/xlink" xmlns:sketch="http://www.bohemiancoding.com/sketch/ns">
    <!-- Generator: Sketch 3.3.1 (12002) - http://www.bohemiancoding.com/sketch -->
    <title>good_logo</title>
    <desc>Created with Sketch.</desc>
    <defs></defs>
    <g id="Page-1" stroke="none" stroke-width="1" fill="none" fill-rule="evenodd" sketch:type="MSPage">
        <g id="Artboard-1" sketch:type="MSArtboardGroup" transform="translate(-123.000000, -59.000000)" fill="#FFFFFF">
            <path d="M242.064515,62.8582263 C242.064515,60.7335544 243.79503,59 245.925141,59 C248.055092,59 249.785607,60.7335544 249.785607,62.8582263 L249.785607,88.8970544 C249.785607,99.216318 241.385459,107.610068 231.066835,107.610068 C226.827089,107.610068 222.665567,106.146696 219.348826,103.488857 C218.19515,102.555454 217.144171,101.429611 216.195411,100.145562 C215.25241,101.420973 214.204631,102.546976 213.048715,103.469821 C209.741573,106.125421 205.587569,107.588792 201.345743,107.588792 C196.250658,107.588792 192.014112,105.877473 188.754319,102.501865 C185.815899,99.4642657 183.777769,95.1274204 182.705195,89.6129035 C181.897685,85.495052 180.514457,82.4315381 178.593742,80.5055443 C176.866586,78.7612722 174.52532,77.8745792 171.63377,77.8745792 C165.567369,77.8745792 160.63481,82.8087385 160.63481,88.8746592 C160.63481,94.9370605 165.567369,99.8680206 171.63377,99.8680206 C174.179153,99.8680206 176.663589,98.974769 178.642052,97.3447128 C179.437884,96.7101266 180.427915,96.4135491 181.426744,96.5093689 C182.462846,96.6079082 183.39209,97.1012441 184.044592,97.9023551 C184.696295,98.694828 185.00615,99.6990962 184.90793,100.728799 C184.807631,101.752103 184.316215,102.672869 183.516064,103.339448 C180.179967,106.075991 175.960857,107.588792 171.63377,107.588792 C167.637653,107.588792 163.730157,106.257713 160.487321,103.837263 C159.988386,109.086236 157.685192,114.008398 153.878315,117.809037 C149.745746,121.936646 144.141968,124.487308 138.082286,124.991362 L137.834498,125 C135.717345,124.987363 133.996428,123.24373 133.992109,121.103222 C134.014664,119.080129 135.611447,117.405122 137.597269,117.293945 C146.473956,116.475878 152.912598,109.919181 152.912598,101.702994 L152.912598,88.8746592 C152.912598,82.8087385 147.984198,77.8745792 141.917157,77.8745792 C135.854916,77.8745792 130.922356,82.8087385 130.922356,88.8746592 C130.922356,94.9381803 135.854916,99.8680206 141.917157,99.8680206 C143.173053,99.8680206 144.397434,99.6650234 145.548871,99.259029 C146.513308,98.908383 147.560127,98.9598921 148.511927,99.3980397 C149.44453,99.8400265 150.147262,100.62834 150.506066,101.62621 C150.839436,102.600244 150.782808,103.645144 150.341621,104.557112 C149.892915,105.488595 149.11132,106.189407 148.138885,106.529176 C146.148105,107.229668 144.055426,107.588792 141.917157,107.588792 C131.596294,107.589592 123.197266,99.1939227 123.197266,88.8746592 C123.197266,78.5541159 131.596294,70.1581266 141.917157,70.1581266 C146.154504,70.1581266 150.312827,71.6226178 153.624288,74.281257 C154.780204,75.2074617 155.830063,76.3323445 156.774344,77.6173534 C157.718465,76.3387431 158.772962,75.2085815 159.930638,74.2782177 C163.24322,71.6226178 167.400423,70.1581266 171.63377,70.1581266 C176.729815,70.1581266 180.965242,71.8713653 184.226314,75.239455 C187.165054,78.2773742 189.197746,82.6140596 190.282317,88.135615 C191.086787,92.2491475 192.462817,95.3153808 194.377933,97.2380153 C196.115806,98.9834071 198.463951,99.8680206 201.345743,99.8680206 C207.411984,99.8680206 212.342624,94.9370605 212.342624,88.8746592 C212.342624,82.8087385 207.411984,77.8745792 201.345743,77.8745792 C198.80372,77.8745792 196.323283,78.7623919 194.362096,80.3775713 C192.7322,81.715849 190.296394,81.4765395 188.922124,79.838165 C187.588965,78.1949916 187.828274,75.7628646 189.463609,74.4137091 C192.801465,71.6694879 197.022815,70.1581266 201.345743,70.1581266 C205.591728,70.1581266 209.748291,71.6226178 213.054154,74.281257 C214.21183,75.2085815 215.266167,76.3397029 216.213808,77.6237521 C217.156969,76.3449818 218.213546,75.2212188 219.367862,74.291015 C222.677244,71.640694 226.837807,70.1763628 231.066835,70.1763628 C233.197586,70.1763628 235.296663,70.5351671 237.309198,71.2476569 C238.274755,71.5970232 239.05459,72.2987952 239.492418,73.2214806 C239.932485,74.1497648 239.990233,75.1946644 239.648385,76.1570214 C239.304458,77.1342553 238.605885,77.9185699 237.67888,78.3605567 C236.749636,78.8060627 235.698178,78.8604513 234.717585,78.5186033 C233.55351,78.1054105 232.326089,77.8960147 231.066835,77.8960147 C225.000434,77.8960147 220.065795,82.8309738 220.065795,88.8970544 C220.065795,94.9607356 225.000434,99.8936152 231.066835,99.8936152 C237.127477,99.8936152 242.064515,94.9607356 242.064515,88.8970544 L242.064515,62.8582263" id="good_logo" sketch:type="MSShapeGroup"></path>
        </g>
    </g>
</svg>